<svg width="45" height="30" viewBox="0 0 45 30" fill="none" xmlns="http://www.w3.org/2000/svg">
<path d="M44.8305 16.8956C44.493 13.1072 43.937 12.3694 43.727 12.0919C43.2442 11.4506 42.4717 11.0316 41.6542 10.5919C41.608 10.5674 41.5681 10.5326 41.5376 10.4901C41.5072 10.4476 41.487 10.3985 41.4787 10.3469C41.4704 10.2953 41.4743 10.2424 41.4899 10.1925C41.5056 10.1426 41.5326 10.097 41.5689 10.0594C41.7203 9.90584 41.8366 9.72134 41.91 9.51856C41.9833 9.31579 42.0118 9.09954 41.9936 8.88469C41.9583 8.5037 41.7812 8.14987 41.4972 7.89339C41.2133 7.6369 40.8434 7.49649 40.4608 7.5H38.9983C38.9356 7.50037 38.873 7.50444 38.8108 7.51219C38.7681 7.49367 38.7239 7.47893 38.6786 7.46813C37.8123 5.63719 36.6264 3.13031 34.1683 1.90687C30.5223 0.0937496 23.8061 0 22.4936 0C21.1811 0 14.4648 0.0937498 10.8236 1.90406C8.36546 3.1275 7.17952 5.63438 6.31327 7.46531L6.30577 7.48031C6.26257 7.48639 6.22014 7.49708 6.17921 7.51219C6.117 7.50444 6.05439 7.50037 5.99171 7.5H4.5264C4.14379 7.49649 3.77385 7.6369 3.48992 7.89339C3.206 8.14987 3.02884 8.5037 2.99358 8.88469C2.97693 9.09904 3.00676 9.31446 3.08102 9.51623C3.15529 9.71799 3.27225 9.90135 3.4239 10.0538C3.46018 10.0914 3.48721 10.137 3.50286 10.1869C3.51851 10.2368 3.52235 10.2896 3.51407 10.3413C3.5058 10.3929 3.48564 10.4419 3.45519 10.4844C3.42473 10.527 3.38481 10.5618 3.33858 10.5863C2.52108 11.0287 1.74483 11.4478 1.26577 12.0863C1.05577 12.3675 0.50077 13.1016 0.162332 16.89C-0.0251676 19.0219 -0.0532925 21.2288 0.093895 22.65C0.402333 25.6031 0.98077 27.3881 1.00515 27.4622C1.09391 27.7317 1.25729 27.9705 1.47634 28.1509C1.69539 28.3313 1.96111 28.4458 2.24265 28.4812V28.5C2.24265 28.8978 2.40068 29.2794 2.68199 29.5607C2.96329 29.842 3.34482 30 3.74265 30H8.99265C9.39047 30 9.772 29.842 10.0533 29.5607C10.3346 29.2794 10.4926 28.8978 10.4926 28.5C11.2998 28.5 11.8614 28.3556 12.4567 28.2019C13.3162 27.9703 14.1947 27.8162 15.0817 27.7416C17.942 27.4688 20.7864 27.375 22.4936 27.375C24.1661 27.375 27.1361 27.4688 30.0011 27.7416C30.8916 27.8164 31.7736 27.9711 32.6364 28.2038C33.2064 28.35 33.7473 28.485 34.4964 28.4991C34.4964 28.8969 34.6544 29.2784 34.9357 29.5597C35.217 29.841 35.5986 29.9991 35.9964 29.9991H41.2464C41.6442 29.9991 42.0258 29.841 42.3071 29.5597C42.5884 29.2784 42.7464 28.8969 42.7464 28.4991V28.4878C43.0286 28.4531 43.2951 28.3388 43.5149 28.1584C43.7347 27.978 43.8986 27.7388 43.9876 27.4688C44.012 27.3947 44.5905 25.6097 44.8989 22.6566C45.0461 21.2344 45.0198 19.0312 44.8305 16.8956ZM9.02452 8.74781C9.77452 7.15406 10.6323 5.35031 12.1595 4.59C14.3664 3.49125 18.9405 2.99625 22.4936 2.99625C26.0467 2.99625 30.6208 3.4875 32.8276 4.59C34.3548 5.35031 35.2089 7.155 35.9627 8.74781L36.0564 8.95125C36.1112 9.06707 36.1355 9.19499 36.1268 9.32284C36.1181 9.45068 36.0769 9.57417 36.0069 9.68153C35.937 9.78889 35.8407 9.87654 35.7272 9.93612C35.6138 9.9957 35.487 10.0252 35.3589 10.0219C32.2436 9.9375 25.6811 9.6675 22.4936 9.6675C19.3061 9.6675 12.7436 9.94406 9.62358 10.0284C9.49549 10.0318 9.36868 10.0023 9.25524 9.94268C9.1418 9.8831 9.04551 9.79545 8.97557 9.68809C8.90562 9.58073 8.86435 9.45724 8.85569 9.3294C8.84703 9.20156 8.87126 9.07363 8.92608 8.95781C8.9589 8.88844 8.99358 8.81812 9.02452 8.74781ZM10.143 16.2131C8.53028 16.4072 6.90728 16.503 5.28296 16.5C4.28921 16.5 3.26452 16.2188 3.07421 15.3337C2.9439 14.7384 2.95796 14.4038 3.02827 14.0672C3.08733 13.7812 3.18108 13.5731 3.64983 13.5C4.86858 13.3125 5.55015 13.5478 7.54515 14.1356C8.86796 14.5247 9.82233 15.0431 10.3661 15.4537C10.6389 15.6562 10.4936 16.185 10.143 16.2131ZM30.8973 23.9006C29.6636 24.0413 27.1961 23.9897 22.5217 23.9897C17.8473 23.9897 15.3808 24.0413 14.147 23.9006C12.8739 23.7591 11.2511 22.5553 12.3592 21.4828C13.097 20.7759 14.8183 20.2472 17.1105 19.95C19.4026 19.6528 20.373 19.5 22.5123 19.5C24.6517 19.5 25.5236 19.5938 27.9142 19.9509C30.3048 20.3081 32.1114 20.8434 32.6655 21.4837C33.6761 22.6313 32.1695 23.7516 30.8973 23.9062V23.9006ZM41.913 15.3328C41.7255 16.2216 40.6942 16.4991 39.7042 16.4991C38.0488 16.4994 36.3948 16.4037 34.7505 16.2122C34.4636 16.185 34.3305 15.6816 34.6211 15.4528C35.1564 15.0319 36.1211 14.5238 37.442 14.1347C39.437 13.5469 40.5873 13.3116 41.5755 13.5075C41.8164 13.5553 41.9439 13.8141 41.9589 13.9762C42.025 14.4278 42.0095 14.8877 41.913 15.3337V15.3328Z" fill="black"/>
</svg>
