<svg width="64" height="64" viewBox="0 0 64 64" fill="none" xmlns="http://www.w3.org/2000/svg">
<g clip-path="url(#clip0_1_8291)">
<mask id="mask0_1_8291" style="mask-type:luminance" maskUnits="userSpaceOnUse" x="0" y="0" width="64" height="64">
<path d="M0 7.62939e-06H64V64H0V7.62939e-06Z" fill="white"/>
</mask>
<g mask="url(#mask0_1_8291)">
<path d="M35.6384 43.6266C44.5582 44.1071 51.3006 46.322 51.3006 48.9817C51.3006 51.9927 42.6602 54.4336 32.0018 54.4336C21.3433 54.4336 12.7031 51.9927 12.7031 48.9817C12.7031 46.322 19.4453 44.1071 28.3651 43.6266" stroke="black" stroke-width="4" stroke-miterlimit="10" stroke-linecap="round" stroke-linejoin="round"/>
<path d="M6.36169 46.5148C3.51794 48.077 1.87494 49.9183 1.87494 51.8901C1.87494 57.5427 15.3624 62.125 31.9999 62.125C48.6376 62.125 62.1249 57.5427 62.1249 51.8901C62.1249 49.9183 60.4821 48.077 57.6383 46.5148" stroke="black" stroke-width="4" stroke-miterlimit="10" stroke-linecap="round" stroke-linejoin="round"/>
<path d="M32.0004 21.3638C29.1668 21.3638 26.8696 19.0667 26.8696 16.2332C26.8696 13.3995 29.1668 11.1024 32.0004 11.1024C34.834 11.1024 37.1311 13.3995 37.1311 16.2332C37.1311 19.0667 34.834 21.3638 32.0004 21.3638ZM32.0004 1.87491C23.4095 1.87491 16.4453 8.83904 16.4453 17.4297C16.4453 23.3948 25.1608 38.4044 29.5441 45.5762C30.6671 47.4134 33.3336 47.4134 34.4566 45.5762C38.84 38.4044 47.5555 23.3948 47.5555 17.4297C47.5555 8.83904 40.5913 1.87491 32.0004 1.87491Z" stroke="black" stroke-width="4" stroke-miterlimit="10" stroke-linecap="round" stroke-linejoin="round"/>
</g>
</g>
<defs>
<clipPath id="clip0_1_8291">
<rect width="64" height="64" fill="white"/>
</clipPath>
</defs>
</svg>
