<svg width="40" height="40" viewBox="0 0 40 40" fill="none" xmlns="http://www.w3.org/2000/svg">
<rect width="40" height="40" rx="20" fill="#5937E0"/>
<path d="M29.9975 24.9201V27.9201C29.9986 28.1986 29.9416 28.4743 29.83 28.7294C29.7184 28.9846 29.5548 29.2137 29.3496 29.402C29.1443 29.5902 28.9021 29.7336 28.6382 29.8228C28.3744 29.912 28.0949 29.9452 27.8175 29.9201C24.7403 29.5857 21.7845 28.5342 19.1875 26.8501C16.7713 25.3148 14.7228 23.2663 13.1875 20.8501C11.4975 18.2413 10.4457 15.2711 10.1175 12.1801C10.0925 11.9036 10.1254 11.6249 10.214 11.3617C10.3026 11.0986 10.4451 10.8568 10.6323 10.6517C10.8195 10.4466 11.0473 10.2828 11.3013 10.1706C11.5553 10.0584 11.8298 10.0004 12.1075 10.0001H15.1075C15.5928 9.99532 16.0633 10.1672 16.4313 10.4836C16.7992 10.8001 17.0396 11.2395 17.1075 11.7201C17.2341 12.6802 17.4689 13.6228 17.8075 14.5301C17.942 14.888 17.9712 15.277 17.8914 15.651C17.8116 16.0249 17.6264 16.3682 17.3575 16.6401L16.0875 17.9101C17.511 20.4136 19.5839 22.4865 22.0875 23.9101L23.3575 22.6401C23.6294 22.3712 23.9726 22.1859 24.3466 22.1062C24.7206 22.0264 25.1096 22.0556 25.4675 22.1901C26.3748 22.5286 27.3174 22.7635 28.2775 22.8901C28.7633 22.9586 29.2069 23.2033 29.524 23.5776C29.8412 23.9519 30.0097 24.4297 29.9975 24.9201Z" fill="white"/>
</svg>
